<mxfile host="65bd71144e">
    <diagram id="3IDh9kUgvZC528X1Esn6" name="第 1 页">
        <mxGraphModel dx="647" dy="442" grid="1" gridSize="10" guides="1" tooltips="1" connect="1" arrows="1" fold="1" page="1" pageScale="1" pageWidth="827" pageHeight="1169" math="0" shadow="0">
            <root>
                <mxCell id="0"/>
                <mxCell id="1" parent="0"/>
                <mxCell id="2" value="" style="shape=umlLifeline;participant=umlActor;perimeter=lifelinePerimeter;whiteSpace=wrap;html=1;container=1;collapsible=0;recursiveResize=0;verticalAlign=top;spacingTop=36;outlineConnect=0;" parent="1" vertex="1">
                    <mxGeometry x="230" y="80" width="20" height="470" as="geometry"/>
                </mxCell>
                <mxCell id="3" value="OJ" style="shape=umlLifeline;perimeter=lifelinePerimeter;whiteSpace=wrap;html=1;container=1;collapsible=0;recursiveResize=0;outlineConnect=0;" parent="1" vertex="1">
                    <mxGeometry x="460" y="80" width="120" height="480" as="geometry"/>
                </mxCell>
                <mxCell id="4" value="" style="html=1;points=[];perimeter=orthogonalPerimeter;" parent="3" vertex="1">
                    <mxGeometry x="55" y="60" width="10" height="380" as="geometry"/>
                </mxCell>
                <mxCell id="13" value="" style="html=1;points=[];perimeter=orthogonalPerimeter;fontSize=10;" parent="3" vertex="1">
                    <mxGeometry x="60" y="295" width="10" height="80" as="geometry"/>
                </mxCell>
                <mxCell id="16" value="可选" style="shape=umlFrame;whiteSpace=wrap;html=1;width=50;height=20;" parent="3" vertex="1">
                    <mxGeometry x="-280" y="280" width="400" height="110" as="geometry"/>
                </mxCell>
                <mxCell id="18" value="" style="html=1;points=[];perimeter=orthogonalPerimeter;" parent="3" vertex="1">
                    <mxGeometry x="60" y="90" width="10" height="40" as="geometry"/>
                </mxCell>
                <mxCell id="19" value="checkPermission(userId)" style="edgeStyle=orthogonalEdgeStyle;html=1;align=left;spacingLeft=2;endArrow=block;rounded=0;entryX=1;entryY=0;" parent="3" target="18" edge="1">
                    <mxGeometry relative="1" as="geometry">
                        <mxPoint x="65" y="70" as="sourcePoint"/>
                        <Array as="points">
                            <mxPoint x="95" y="70"/>
                        </Array>
                    </mxGeometry>
                </mxCell>
                <mxCell id="5" value="createProblem(title, description, timeLimit, ...)" style="html=1;verticalAlign=bottom;endArrow=block;entryX=0;entryY=0;" parent="1" source="2" target="4" edge="1">
                    <mxGeometry relative="1" as="geometry">
                        <mxPoint x="365" y="220" as="sourcePoint"/>
                    </mxGeometry>
                </mxCell>
                <mxCell id="6" value="return&lt;br&gt;problemId" style="html=1;verticalAlign=bottom;endArrow=open;dashed=1;endSize=8;exitX=0;exitY=0.95;" parent="1" source="4" target="2" edge="1">
                    <mxGeometry x="0.0034" relative="1" as="geometry">
                        <mxPoint x="365" y="296" as="targetPoint"/>
                        <mxPoint as="offset"/>
                    </mxGeometry>
                </mxCell>
                <mxCell id="7" value="循环" style="shape=umlFrame;whiteSpace=wrap;html=1;width=50;height=20;" parent="1" vertex="1">
                    <mxGeometry x="180" y="230" width="400" height="110" as="geometry"/>
                </mxCell>
                <mxCell id="8" value="" style="html=1;points=[];perimeter=orthogonalPerimeter;" parent="1" vertex="1">
                    <mxGeometry x="520" y="250" width="10" height="80" as="geometry"/>
                </mxCell>
                <mxCell id="9" value="addData(inputFile, outputFile)" style="html=1;verticalAlign=bottom;endArrow=block;entryX=0;entryY=0;" parent="1" source="2" target="8" edge="1">
                    <mxGeometry relative="1" as="geometry">
                        <mxPoint x="495" y="260" as="sourcePoint"/>
                    </mxGeometry>
                </mxCell>
                <mxCell id="10" value="return" style="html=1;verticalAlign=bottom;endArrow=open;dashed=1;endSize=8;exitX=0;exitY=0.95;" parent="1" source="8" target="2" edge="1">
                    <mxGeometry relative="1" as="geometry">
                        <mxPoint x="495" y="336" as="targetPoint"/>
                    </mxGeometry>
                </mxCell>
                <mxCell id="11" value="[1,*]" style="text;html=1;align=center;verticalAlign=middle;resizable=0;points=[];autosize=1;strokeColor=none;fillColor=none;fontSize=10;" parent="1" vertex="1">
                    <mxGeometry x="180" y="250" width="40" height="30" as="geometry"/>
                </mxCell>
                <mxCell id="14" value="removeData(n)" style="html=1;verticalAlign=bottom;endArrow=block;entryX=0;entryY=0;fontSize=10;" parent="1" source="2" target="13" edge="1">
                    <mxGeometry relative="1" as="geometry">
                        <mxPoint x="240.16666666666663" y="360.0000000000001" as="sourcePoint"/>
                    </mxGeometry>
                </mxCell>
                <mxCell id="15" value="return" style="html=1;verticalAlign=bottom;endArrow=open;dashed=1;endSize=8;exitX=0;exitY=0.95;fontSize=10;" parent="1" source="13" target="2" edge="1">
                    <mxGeometry relative="1" as="geometry">
                        <mxPoint x="240.16666666666663" y="436" as="targetPoint"/>
                    </mxGeometry>
                </mxCell>
            </root>
        </mxGraphModel>
    </diagram>
</mxfile>